<svg width="150" height="44" viewBox="0 0 200 58" fill="none" xmlns="http://www.w3.org/2000/svg">
<path d="M13.3843 4.78011C13.3843 2.14013 15.5245 0 18.1644 0C20.8044 0 22.9446 2.14013 22.9446 4.78011V52.5813C22.9446 55.2212 20.8044 57.3614 18.1644 57.3614C15.5245 57.3614 13.3843 55.2212 13.3843 52.5813V4.78011Z" fill="white"/>
<path d="M175.143 4.78011C175.143 2.14013 177.284 0 179.924 0C182.564 0 184.704 2.14013 184.704 4.78011V52.5813C184.704 55.2212 182.564 57.3614 179.924 57.3614C177.284 57.3614 175.143 55.2212 175.143 52.5813V4.78011Z" fill="white"/>
<path d="M0 13.3843C0 11.2723 1.7121 9.56023 3.82409 9.56023C5.93608 9.56023 7.64818 11.2723 7.64818 13.3843V43.9771C7.64818 46.089 5.93608 47.8011 3.82409 47.8011C1.7121 47.8011 0 46.089 0 43.9771V13.3843Z" fill="white"/>
<path d="M192.352 13.3843C192.352 11.2723 194.064 9.56023 196.176 9.56023C198.288 9.56023 200 11.2723 200 13.3843V43.9771C200 46.089 198.288 47.8011 196.176 47.8011C194.064 47.8011 192.352 46.089 192.352 43.9771V13.3843Z" fill="white"/>
<path d="M37.4073 37.4761L31.3958 20.956H34.0344L38.4168 32.979L42.7992 20.956H45.4149L49.8203 32.979L54.1797 20.956H56.8413L50.8298 37.4761H48.7878L44.1071 24.6272L39.4264 37.4761H37.4073Z" fill="white"/>
<path d="M60.872 37.4761C60.046 37.4761 59.3424 37.1855 58.7611 36.6042C58.1799 36.0229 57.8892 35.3193 57.8892 34.4933V27.1511C57.8892 26.325 58.1799 25.6214 58.7611 25.0402C59.3424 24.4589 60.046 24.1683 60.872 24.1683H68.4437C69.2697 24.1683 69.9734 24.4589 70.5546 25.0402C71.1359 25.6214 71.4265 26.325 71.4265 27.1511V34.4933C71.4265 35.3193 71.1359 36.0229 70.5546 36.6042C69.9734 37.1855 69.2697 37.4761 68.4437 37.4761H60.872ZM61.2162 34.9981H68.0995C68.4361 34.9981 68.6579 34.9446 68.7649 34.8375C68.872 34.7151 68.9256 34.4857 68.9256 34.1491V27.4952C68.9256 27.1587 68.872 26.9369 68.7649 26.8298C68.6579 26.7075 68.4361 26.6463 68.0995 26.6463H61.2162C60.8797 26.6463 60.6502 26.7075 60.5278 26.8298C60.4208 26.9369 60.3672 27.1587 60.3672 27.4952V34.1491C60.3672 34.4857 60.4208 34.7151 60.5278 34.8375C60.6502 34.9446 60.8797 34.9981 61.2162 34.9981Z" fill="white"/>
<path d="M73.4401 37.4761V27.1511C73.4401 26.325 73.7307 25.6214 74.312 25.0402C74.8932 24.4589 75.5969 24.1683 76.4229 24.1683H83.8569V26.6463H76.767C76.4305 26.6463 76.2011 26.7075 76.0787 26.8298C75.9716 26.9369 75.9181 27.1587 75.9181 27.4952V37.4761H73.4401Z" fill="white"/>
<path d="M85.3392 37.4761V19.8088H87.8172V29.5832H90.8L95.7789 24.1683H98.6241V24.6272L93.0026 30.8222L98.6241 37.0172V37.4761H95.7789L90.8 32.0612H87.8172V37.4761H85.3392Z" fill="white"/>
<path d="M103.086 37.4761C102.26 37.4761 101.557 37.1855 100.976 36.6042C100.394 36.0229 100.104 35.3193 100.104 34.4933V27.1511C100.104 26.325 100.394 25.6214 100.976 25.0402C101.557 24.4589 102.26 24.1683 103.086 24.1683H110.658C111.484 24.1683 112.188 24.4589 112.769 25.0402C113.35 25.6214 113.641 26.325 113.641 27.1511V34.4933C113.641 35.3193 113.35 36.0229 112.769 36.6042C112.188 37.1855 111.484 37.4761 110.658 37.4761H103.086ZM103.431 34.9981H110.314C110.65 34.9981 110.872 34.9446 110.979 34.8375C111.086 34.7151 111.14 34.4857 111.14 34.1491V27.4952C111.14 27.1587 111.086 26.9369 110.979 26.8298C110.872 26.7075 110.65 26.6463 110.314 26.6463H103.431C103.094 26.6463 102.865 26.7075 102.742 26.8298C102.635 26.9369 102.582 27.1587 102.582 27.4952V34.1491C102.582 34.4857 102.635 34.7151 102.742 34.8375C102.865 34.9446 103.094 34.9981 103.431 34.9981Z" fill="white"/>
<path d="M118.459 37.4761C117.633 37.4761 116.929 37.1855 116.348 36.6042C115.766 36.0229 115.476 35.3193 115.476 34.4933V24.1683H117.954V34.1491C117.954 34.4857 118.007 34.7151 118.114 34.8375C118.237 34.9446 118.466 34.9981 118.803 34.9981H125.686C126.023 34.9981 126.244 34.9446 126.351 34.8375C126.474 34.7151 126.535 34.4857 126.535 34.1491V24.1683H129.013V34.4933C129.013 35.3193 128.722 36.0229 128.141 36.6042C127.56 37.1855 126.856 37.4761 126.03 37.4761H118.459Z" fill="white"/>
<path d="M133.986 37.4761C133.16 37.4761 132.457 37.1855 131.876 36.6042C131.294 36.0229 131.004 35.3193 131.004 34.4933V19.9694H133.482V24.1683H138.942V26.6463H133.482V34.1491C133.482 34.4857 133.535 34.7151 133.642 34.8375C133.765 34.9446 133.994 34.9981 134.331 34.9981H138.942V37.4761H133.986Z" fill="white"/>
<path d="M143.687 37.4761C142.861 37.4761 142.158 37.1855 141.577 36.6042C140.995 36.0229 140.705 35.3193 140.705 34.4933V27.1511C140.705 26.325 140.995 25.6214 141.577 25.0402C142.158 24.4589 142.861 24.1683 143.687 24.1683H151.259C152.085 24.1683 152.789 24.4589 153.37 25.0402C153.951 25.6214 154.242 26.325 154.242 27.1511V32.0612H143.183V34.1491C143.183 34.4857 143.236 34.7151 143.343 34.8375C143.466 34.9446 143.695 34.9981 144.032 34.9981H154.242V37.4761H143.687ZM143.183 29.7438H151.741V27.4952C151.741 27.1587 151.688 26.9369 151.58 26.8298C151.473 26.7075 151.252 26.6463 150.915 26.6463H144.032C143.695 26.6463 143.466 26.7075 143.343 26.8298C143.236 26.9369 143.183 27.1587 143.183 27.4952V29.7438Z" fill="white"/>
<path d="M156.48 37.4761V27.1511C156.48 26.325 156.77 25.6214 157.352 25.0402C157.933 24.4589 158.636 24.1683 159.462 24.1683H166.896V26.6463H159.807C159.47 26.6463 159.241 26.7075 159.118 26.8298C159.011 26.9369 158.958 27.1587 158.958 27.4952V37.4761H156.48Z" fill="white"/>
</svg>
